<svg width="447" height="416" viewBox="0 0 447 416" fill="none" xmlns="http://www.w3.org/2000/svg">
<g clip-path="url(#clip0_522_1715)">
<g filter="url(#filter0_i_522_1715)">
<path fill-rule="evenodd" clip-rule="evenodd" d="M25.5991 16.6697C41.185 24.3809 58.0698 34.9862 69.7172 48.4972C83.1428 64.0709 91.4383 85.3643 98.8568 104.406C99.3475 105.666 99.8344 106.916 100.319 108.153C108.566 129.229 116.135 147.055 127.931 158.415C141.069 171.066 148.591 174.59 155.704 175.544C159.587 176.065 163.983 175.901 169.957 175.162C173.642 174.706 177.438 174.105 181.829 173.41C184.868 172.93 188.191 172.404 191.961 171.85C224.848 167.013 249.032 185.792 257.481 196.353L240.301 210.096C235.089 203.581 218.016 190.255 195.162 193.615C191.993 194.081 188.875 194.573 185.87 195.047C181.099 195.799 176.613 196.506 172.659 196.995C165.954 197.825 159.399 198.237 152.779 197.349C138.888 195.486 127.199 188.251 112.671 174.262C96.8031 158.982 87.7219 136.335 79.8313 116.17C79.5126 115.356 79.1957 114.545 78.8802 113.738C70.9465 93.4387 63.9237 75.4706 53.0541 62.8618C44.2091 52.6016 30.3554 43.5683 15.8432 36.3883C1.47997 29.282 -12.561 24.4615 -20.8564 22.2493L-15.1877 0.992188C-5.55237 3.56163 9.86434 8.88486 25.5991 16.6697Z" fill="#395CA6"/>
</g>
<path d="M125.074 207.438C123.074 209.438 123.24 224.271 123.574 231.438L123.573 231.439C117.574 239.938 117.574 239.938 115.074 249.438C112.574 258.938 118.074 327.938 120.074 359.938C122.074 391.938 125.074 398.438 135.074 407.438C145.018 416.388 155.456 415.943 178.68 414.955L179.074 414.938C202.574 413.938 211.074 391.438 215.074 374.938C219.074 358.438 228.574 325.938 231.074 311.938C233.074 300.738 238.574 297.271 241.074 296.938C263.074 289.771 308.474 274.738 314.074 271.938C319.674 269.138 328.074 278.771 331.574 283.938C367.074 334.938 381.074 335.938 386.574 337.938C390.974 339.538 397.407 337.938 400.074 336.938C402.074 336.938 414.074 335.938 423.574 333.438C433.074 330.938 445.074 321.938 446.074 305.938C447.074 289.938 438.574 268.438 434.574 255.938C431.374 245.938 417.24 210.105 410.574 193.438C402.574 169.438 381.24 160.771 371.574 159.438C365.574 149.938 362.074 143.938 357.074 142.938C352.074 141.938 350.074 141.938 347.574 140.438C345.074 138.938 335.574 138.438 331.074 140.438C326.574 142.438 314.574 143.438 309.574 144.938C304.574 146.438 297.574 152.438 297.574 155.438C297.574 158.438 295.074 161.438 293.574 163.938C292.374 165.938 293.074 179.105 293.574 185.438C287.174 187.438 234.574 203.271 209.074 210.938C205.874 208.938 200.407 206.771 198.074 205.938C197.74 204.938 196.274 201.838 193.074 197.438C189.074 191.938 182.574 190.938 177.074 188.938C171.574 186.938 160.574 187.438 152.074 188.938C143.574 190.438 133.074 195.438 130.074 198.938C127.074 202.438 127.574 204.938 125.074 207.438Z" fill="#0524FA"/>
<path d="M139.074 211.938V225.438L141.074 235.438C137.907 245.771 131.374 268.038 130.574 274.438C129.574 282.438 132.574 322.938 134.574 341.938C136.574 360.938 137.574 390.938 146.074 400.438C154.574 409.938 169.574 414.438 185.074 411.938C200.574 409.438 209.574 386.938 212.074 376.938C214.574 366.938 227.074 320.438 228.074 312.938C229.074 305.438 232.574 295.938 240.574 293.938C248.574 291.938 317.574 268.438 327.074 265.938C336.574 263.438 342.574 269.438 347.074 275.438C351.574 281.438 361.074 293.938 368.574 304.438C376.074 314.938 394.574 336.438 414.074 332.938C433.574 329.438 441.574 319.438 443.074 306.438C444.574 293.438 435.574 268.438 433.074 259.938C431.074 253.138 417.24 218.438 410.574 201.938C397.907 189.605 371.274 163.238 366.074 156.438C359.574 147.938 361.074 146.938 350.574 144.938C340.074 142.938 324.574 148.938 317.574 153.938C311.974 157.938 311.24 162.938 311.574 164.938L313.074 183.938L201.074 217.938L196.074 206.438C194.74 202.105 189.674 193.138 180.074 191.938C168.074 190.438 150.574 197.938 144.574 201.938C139.774 205.138 138.907 209.938 139.074 211.938Z" fill="#2F68F9"/>
<path d="M159.574 212.438C150.774 216.038 142.574 223.938 139.574 227.438C135.574 232.605 127.774 246.938 128.574 262.938C129.574 282.938 145.074 297.938 160.574 305.438C176.074 312.938 198.574 308.938 207.074 305.438C215.574 301.938 233.074 289.938 236.574 273.938C240.074 257.938 238.574 244.438 230.074 230.438C221.574 216.438 207.074 210.938 194.574 208.438C182.074 205.938 170.574 207.938 159.574 212.438Z" fill="#2F68F9" stroke="#0425F5" stroke-width="2"/>
<path d="M334.617 163.911C325.963 167.428 317.898 175.147 314.948 178.567C311.014 183.616 303.343 197.621 304.13 213.255C305.113 232.797 320.357 247.454 335.601 254.782C350.844 262.11 372.972 258.202 381.331 254.782C389.691 251.362 406.901 239.637 410.343 224.003C413.785 208.369 412.31 195.178 403.951 181.499C395.591 167.819 381.331 162.445 369.038 160.002C356.745 157.559 345.435 159.514 334.617 163.911Z" fill="#2F68F9" stroke="#0425F5" stroke-width="2"/>
<path d="M212.532 250.639L211.291 246.088C210.49 243.151 210.09 241.683 209.053 240.866C208.744 240.623 208.401 240.426 208.035 240.283C206.805 239.803 205.337 240.201 202.399 240.997L201.447 241.256C198.564 242.037 197.123 242.428 195.906 243.172C194.89 243.792 193.993 244.589 193.257 245.524C192.375 246.646 191.817 248.031 190.7 250.801L190.633 250.969C189.981 252.587 189.655 253.396 189.656 254.175C189.657 254.99 189.908 255.785 190.373 256.454C190.818 257.093 191.549 257.57 193.01 258.523C195.036 259.844 196.048 260.505 197.144 260.9C198.295 261.314 199.512 261.515 200.734 261.49C201.899 261.467 203.07 261.166 205.412 260.564L207.002 260.155C210.442 259.269 212.163 258.827 213.012 257.532C213.091 257.412 213.163 257.287 213.229 257.159C213.933 255.78 213.466 254.066 212.532 250.639Z" fill="#0425F5"/>
<path d="M190.605 286.971L195.026 285.327C197.879 284.266 199.306 283.735 200.026 282.629C200.241 282.3 200.405 281.941 200.515 281.563C200.884 280.295 200.355 278.868 199.298 276.014L198.956 275.089C197.918 272.288 197.4 270.888 196.55 269.742C195.841 268.786 194.967 267.964 193.969 267.315C192.773 266.537 191.344 266.105 188.485 265.242L188.312 265.19C186.641 264.686 185.806 264.433 185.031 264.505C184.219 264.579 183.449 264.9 182.825 265.424C182.228 265.924 181.819 266.695 181.001 268.236C179.867 270.371 179.3 271.439 179.005 272.566C178.695 273.749 178.605 274.979 178.739 276.195C178.866 277.352 179.271 278.492 180.081 280.77L180.631 282.317C181.822 285.664 182.417 287.338 183.782 288.068C183.909 288.135 184.04 288.196 184.174 288.25C185.61 288.828 187.275 288.209 190.605 286.971Z" fill="#0425F5"/>
<path d="M154.263 264.652L155.882 269.083C156.927 271.941 157.449 273.371 158.551 274.098C158.879 274.314 159.237 274.481 159.614 274.593C160.88 274.969 162.31 274.448 165.17 273.408L166.097 273.07C168.904 272.049 170.307 271.539 171.458 270.696C172.418 269.992 173.245 269.123 173.9 268.129C174.684 266.937 175.124 265.51 176.004 262.656L176.057 262.483C176.571 260.816 176.828 259.982 176.761 259.206C176.691 258.394 176.375 257.623 175.855 256.995C175.358 256.396 174.589 255.982 173.053 255.155C170.924 254.009 169.859 253.436 168.734 253.134C167.553 252.818 166.324 252.72 165.107 252.847C163.949 252.968 162.807 253.367 160.524 254.164L158.974 254.705C155.62 255.876 153.943 256.462 153.206 257.823C153.137 257.95 153.075 258.08 153.021 258.214C152.435 259.646 153.044 261.315 154.263 264.652Z" fill="#0425F5"/>
<path d="M175.704 227.684L171.213 229.127C168.315 230.057 166.866 230.523 166.097 231.595C165.867 231.915 165.687 232.266 165.56 232.638C165.134 233.888 165.598 235.338 166.525 238.237L166.825 239.176C167.735 242.021 168.19 243.444 168.987 244.627C169.652 245.614 170.488 246.475 171.455 247.168C172.615 247.999 174.023 248.495 176.841 249.486L177.011 249.546C178.657 250.125 179.48 250.415 180.258 250.379C181.072 250.341 181.855 250.056 182.503 249.561C183.122 249.088 183.565 248.336 184.452 246.834C185.681 244.752 186.296 243.71 186.642 242.598C187.005 241.43 187.15 240.206 187.072 238.985C186.997 237.823 186.643 236.666 185.937 234.354L185.457 232.784C184.42 229.386 183.901 227.687 182.57 226.897C182.446 226.823 182.318 226.756 182.187 226.696C180.778 226.054 179.087 226.597 175.704 227.684Z" fill="#0425F5"/>
<path d="M157.336 230.118L162.814 247.812C163.06 248.609 162.61 249.454 161.811 249.693L143.698 255.115C141.08 255.899 139.576 258.639 140.321 261.269L145.555 279.734C146.322 282.439 149.168 283.98 151.852 283.144L173.499 276.403C174.279 276.16 175.11 276.586 175.368 277.361L180.869 293.869C181.724 296.436 184.465 297.857 187.056 297.076L204.67 291.766C207.325 290.966 208.821 288.157 208.005 285.507L202.826 268.688C202.58 267.887 203.037 267.04 203.842 266.806L224.617 260.779C227.229 260.022 228.756 257.315 228.055 254.688L223.311 236.918C222.593 234.229 219.817 232.643 217.136 233.392L192.523 240.264C191.728 240.486 190.902 240.023 190.677 239.229L185.666 221.556C184.902 218.862 182.074 217.32 179.396 218.138L160.653 223.857C158.004 224.666 156.517 227.473 157.336 230.118Z" stroke="white" stroke-width="2.5"/>
<path d="M333.984 178.298L339.462 195.991C339.709 196.788 339.258 197.633 338.46 197.872L320.346 203.294C317.728 204.078 316.224 206.819 316.969 209.448L322.204 227.913C322.97 230.618 325.816 232.159 328.501 231.323L350.148 224.582C350.927 224.339 351.758 224.765 352.017 225.54L357.517 242.048C358.373 244.615 361.114 246.036 363.704 245.255L381.318 239.945C383.973 239.145 385.47 236.337 384.654 233.686L379.475 216.867C379.228 216.067 379.686 215.219 380.491 214.985L401.266 208.958C403.878 208.201 405.405 205.494 404.703 202.867L399.96 185.097C399.242 182.408 396.465 180.823 393.784 181.571L369.172 188.443C368.376 188.665 367.551 188.202 367.325 187.408L362.314 169.735C361.55 167.041 358.723 165.499 356.045 166.317L337.301 172.036C334.652 172.845 333.165 175.652 333.984 178.298Z" stroke="white" stroke-width="2.5"/>
<path d="M375.09 329.853L369.196 326.372L353.948 310.451C341.621 295.586 339.191 292.026 338.429 287.954C336.986 280.963 339.326 280.356 344.878 285.16C347.328 287.484 350.068 288.755 350.841 288.637C351.658 283.397 383.479 325.684 383.232 328.327C385.205 332.876 377.284 330.625 375.09 329.853Z" fill="#FF3F7C"/>
<path d="M125.714 385.516C122.536 379.874 122.47 378.731 120.247 335.242C119.319 318.391 118.387 300.688 118.143 295.93C117.898 291.172 116.989 286.018 116.963 284.501C116.831 276.736 119.601 282.493 121.364 275.82C121.71 274.509 123.084 273.909 123.781 275.073C127.067 280.565 128.686 296.065 130.234 319.851C131.243 335.954 132.558 356.253 133.147 364.834C134.324 381.144 133.779 386.196 130.463 388.867C128.701 390.286 128.18 389.851 125.714 385.516Z" fill="#FF3F7C"/>
<path d="M244.51 223.865L289.364 209.825" stroke="#FE337D" stroke-width="6" stroke-linecap="round"/>
<path d="M253.366 232.412L286.768 221.957" stroke="#E9F9FF" stroke-width="6" stroke-linecap="round"/>
<path d="M335.158 224.462C341.575 224.462 346.777 219.26 346.777 212.843C346.777 206.426 341.575 201.224 335.158 201.224C328.741 201.224 323.539 206.426 323.539 212.843C323.539 219.26 328.741 224.462 335.158 224.462Z" fill="#0425F5"/>
<path d="M368.064 238.919C374.481 238.919 379.683 233.717 379.683 227.3C379.683 220.883 374.481 215.681 368.064 215.681C361.647 215.681 356.445 220.883 356.445 227.3C356.445 233.717 361.647 238.919 368.064 238.919Z" fill="#0425F5"/>
<path d="M386.989 209.917C393.406 209.917 398.608 204.715 398.608 198.298C398.608 191.881 393.406 186.679 386.989 186.679C380.572 186.679 375.37 191.881 375.37 198.298C375.37 204.715 380.572 209.917 386.989 209.917Z" fill="#0425F5"/>
<path d="M352.375 195.016C358.792 195.016 363.994 189.814 363.994 183.397C363.994 176.98 358.792 171.778 352.375 171.778C345.958 171.778 340.756 176.98 340.756 183.397C340.756 189.814 345.958 195.016 352.375 195.016Z" fill="#0425F5"/>
<path d="M355.693 188.888L358.671 180.699C359.618 178.093 357.474 175.407 354.723 175.753C354.039 175.839 353.433 176.238 353.084 176.832L352.852 177.226C352.675 177.528 352.53 177.847 352.419 178.179L351.743 180.206L349.216 178.89L349.011 178.81C347.406 178.185 345.598 178.973 344.964 180.574C344.408 181.977 344.933 183.578 346.213 184.379L354.222 189.394C354.762 189.732 355.475 189.486 355.693 188.888Z" stroke="white" stroke-width="2"/>
<path d="M332.524 205.455L330.392 214.807C330.373 214.888 330.407 214.972 330.476 215.018L338.517 220.346C338.633 220.423 338.791 220.36 338.822 220.225L341.065 210.592C341.084 210.508 341.048 210.422 340.975 210.376L332.824 205.329C332.707 205.257 332.554 205.321 332.524 205.455Z" stroke="#D5489F" stroke-width="2"/>
<path d="M383.295 195.97L385.094 191.035C385.138 190.915 385.281 190.866 385.389 190.934L389.774 193.703C389.806 193.723 389.843 193.734 389.881 193.734H395.212C395.351 193.734 395.447 193.87 395.401 194L393.594 199.102C393.581 199.138 393.579 199.178 393.588 199.215L394.704 203.833C394.734 203.959 394.639 204.08 394.509 204.08H389.887C389.845 204.08 389.804 204.093 389.77 204.118L386.085 206.774C385.983 206.848 385.839 206.81 385.787 206.696L383.718 202.213C383.701 202.177 383.675 202.147 383.642 202.127L379.13 199.316C379.009 199.241 379.004 199.066 379.12 198.984L383.223 196.064C383.256 196.041 383.281 196.008 383.295 195.97Z" stroke="#D5489F" stroke-width="2"/>
<path d="M366.832 220.327L365.724 220.749C363.989 221.41 362.763 222.977 362.54 224.82L362.305 226.755C362.083 228.589 362.891 230.397 364.405 231.455L365.434 232.174C366.886 233.189 368.767 233.359 370.379 232.621L371.939 231.907C373.481 231.201 374.56 229.762 374.805 228.084L374.973 226.941C375.221 225.247 374.585 223.545 373.288 222.428L371.875 221.21C370.483 220.012 368.548 219.673 366.832 220.327Z" stroke="white" stroke-width="2"/>
<path d="M156.451 400.443C153.646 398.731 150.534 395.572 148.963 392.869C143.615 382.471 145.809 377.47 146.706 376.021C147.478 374.773 152.707 371.149 155.738 380.834C158.768 390.519 168.335 394.976 169.701 397.412C171.068 399.848 170.236 402.819 167.265 403.473C164.294 404.127 159.956 402.582 156.451 400.443Z" fill="#F9FCFF" stroke="#1E38D7" stroke-width="2"/>
<path d="M435.332 295.606C435.891 299.198 435.447 304.085 434.287 307.344C429.325 319.294 423.532 321.015 421.668 321.293C420.062 321.532 413.262 319.706 419.278 310.224C425.294 300.741 422.221 289.475 423.302 286.579C424.383 283.683 427.487 282.262 430.163 284.305C432.838 286.347 434.634 291.116 435.332 295.606Z" fill="#F9FCFF" stroke="#1E38D7" stroke-width="2"/>
<path d="M288.117 255.695L285.642 248.431C285.428 247.801 285.877 247.141 286.541 247.11L302.7 246.344C303.418 246.31 303.715 247.249 303.109 247.634L289.6 256.216C289.053 256.564 288.326 256.308 288.117 255.695Z" fill="#0425F5"/>
<path d="M272.031 251.699L258.526 256.165C257.997 256.34 257.713 256.914 257.895 257.441L260.302 264.408C260.484 264.934 261.06 265.211 261.585 265.023L275.191 260.142C275.718 259.952 275.987 259.366 275.787 258.843L273.279 252.291C273.088 251.792 272.539 251.531 272.031 251.699Z" fill="#0425F5"/>
<path d="M263.423 268.792L276.635 264.161" stroke="white" stroke-width="2.8" stroke-linecap="round"/>
<path d="M291.062 259.974L304.274 255.343" stroke="white" stroke-width="2.8" stroke-linecap="round"/>
</g>
<defs>
<filter id="filter0_i_522_1715" x="-29.8564" y="0.992188" width="287.337" height="219.104" filterUnits="userSpaceOnUse" color-interpolation-filters="sRGB">
<feFlood flood-opacity="0" result="BackgroundImageFix"/>
<feBlend mode="normal" in="SourceGraphic" in2="BackgroundImageFix" result="shape"/>
<feColorMatrix in="SourceAlpha" type="matrix" values="0 0 0 0 0 0 0 0 0 0 0 0 0 0 0 0 0 0 127 0" result="hardAlpha"/>
<feOffset dx="-9" dy="10"/>
<feGaussianBlur stdDeviation="5"/>
<feComposite in2="hardAlpha" operator="arithmetic" k2="-1" k3="1"/>
<feColorMatrix type="matrix" values="0 0 0 0 0.396078 0 0 0 0 0.580392 0 0 0 0 0.745098 0 0 0 1 0"/>
<feBlend mode="normal" in2="shape" result="effect1_innerShadow_522_1715"/>
</filter>
<clipPath id="clip0_522_1715">
<rect width="447" height="415" fill="white" transform="translate(0 0.496094)"/>
</clipPath>
</defs>
</svg>
