<svg width="479" height="456" viewBox="0 0 479 456" fill="none" xmlns="http://www.w3.org/2000/svg">
<g clip-path="url(#clip0_522_1747)">
<g filter="url(#filter0_i_522_1747)">
<path fill-rule="evenodd" clip-rule="evenodd" d="M219.692 193.059C231.073 184.256 249.73 172.101 264 168.329C324.689 152.288 346.092 171.874 364.901 181.067C372.089 184.58 382.995 187.11 384.091 187.198C402.758 188.695 418.761 189.521 431.485 184.859C445.654 179.667 447.635 178.98 452.002 173.68C454.936 170.119 457.551 164.371 459.165 159.658C460.16 156.752 461.088 153.711 462.162 150.192C462.904 147.757 463.717 145.094 464.67 142.088C472.983 115.871 495.712 104.68 506.629 102.22L510.632 119.978C503.896 121.496 487.799 129.371 482.022 147.59C481.221 150.117 480.457 152.615 479.721 155.022C478.553 158.843 477.454 162.437 476.386 165.556C474.575 170.845 472.508 175.871 469.45 180.474C463.032 190.133 453.417 196.21 437.747 201.951C420.632 208.222 401.268 207.001 383.408 205.568C382.687 205.51 378.502 204.935 373.83 203.933C352.449 198.025 314.264 164.239 264 189.363C253.164 192.227 241.426 199.262 230.828 207.458C220.339 215.57 211.667 224.27 207.017 229.641L193.256 217.724C198.657 211.487 208.201 201.945 219.692 193.059Z" fill="#3A5EA7"/>
</g>
<path d="M338.033 258.246C339.554 260.467 336.801 274.316 335.234 280.963V280.964C339.36 289.967 339.36 289.967 340.035 299.293C340.711 308.619 323.483 372.215 316.009 401.805C308.535 431.395 304.59 436.951 293.658 443.621C282.787 450.253 273.098 448.01 251.542 443.018L251.177 442.934C229.364 437.883 225.351 415.343 224.498 399.205C223.644 383.067 220.446 350.995 220.559 337.459C220.648 326.63 216.11 322.423 213.829 321.673C194.5 311.116 154.654 289.101 149.905 285.501C145.156 281.9 135.61 289.443 131.43 293.664C89.2857 335.165 76.0118 333.65 70.5156 334.558C66.1187 335.284 60.3796 332.661 58.0597 331.258C56.1884 330.908 45.1359 327.871 36.6852 323.869C28.2344 319.866 18.5827 309.345 20.4486 294.199C22.3145 279.054 34.032 260.427 39.9632 249.431C44.7081 240.635 64.206 209.583 73.3618 195.157C85.0491 174.102 106.527 169.729 115.805 170.174C123.082 162.336 127.407 157.335 132.26 157.275C137.114 157.215 138.985 157.565 141.587 156.599C144.188 155.634 153.164 156.829 157.024 159.489C160.885 162.148 171.937 165.185 176.353 167.463C180.768 169.742 186.267 176.582 185.742 179.389C185.216 182.196 187.03 185.44 187.996 188.042C188.768 190.123 185.808 202.32 184.231 208.158C189.869 211.15 236.311 235.174 258.827 246.812C262.171 245.501 267.666 244.431 269.995 244.06C270.482 243.183 272.397 240.539 276.161 236.983C280.867 232.537 287.123 232.74 292.62 231.831C298.116 230.923 308.32 233.317 316.01 236.209C323.7 239.101 332.649 245.617 334.843 249.417C337.037 253.217 336.132 255.469 338.033 258.246Z" fill="#0524FA"/>
<path d="M324.146 260.004L321.783 272.636L318.16 281.642C319.314 291.864 321.528 313.842 321.156 319.97C320.691 327.63 310.792 364.998 305.594 382.424C300.396 399.851 294.208 427.745 284.591 435.145C274.975 442.545 260.153 444.129 246.088 439.076C232.024 434.023 227.543 411.396 226.954 401.602C226.366 391.808 222.813 346.112 223.19 338.92C223.568 331.727 221.957 322.226 214.822 318.954C207.687 315.682 147.243 281.613 138.793 277.611C130.342 273.608 123.677 278.171 118.417 282.997C113.156 287.823 102.078 297.855 93.2227 306.366C84.3669 314.877 63.2932 331.754 45.6612 325.064C28.0293 318.375 22.2952 307.618 23.168 295.193C24.0408 282.767 36.8388 260.952 40.6662 253.437C43.7282 247.425 62.7469 217.38 71.8735 203.11C85.8843 193.788 115.42 173.782 121.476 168.33C129.046 161.516 127.817 160.317 137.992 160.284C148.166 160.252 161.618 168.579 167.292 174.483C171.831 179.206 171.642 184.013 170.98 185.826L166.249 203.34L265.087 254.762L271.778 244.878C273.785 241.057 280.095 233.555 289.287 234.113C300.778 234.811 315.838 244.892 320.751 249.685C324.682 253.52 324.653 258.162 324.146 260.004Z" fill="#2F68F9"/>
<path d="M82.676 329.004L88.7997 326.779L105.854 314.552C119.991 302.803 122.887 299.897 124.314 296.221C126.888 289.932 124.804 288.955 118.769 292.478C116.07 294.223 113.283 294.933 112.581 294.686C112.734 289.641 75.5568 323.634 75.3248 326.151C72.6822 330.061 80.4878 329.342 82.676 329.004Z" fill="#FF3F7C"/>
<path d="M306.254 424.749C310.215 420.026 310.477 418.969 320.171 378.668C323.991 363.065 327.962 346.664 329.024 342.255C330.086 337.846 331.839 333.184 332.129 331.769C333.602 324.577 330.062 329.36 329.541 323.011C329.43 321.659 328.195 320.827 327.311 321.856C323.301 326.527 319.094 340.698 313.522 362.519C309.758 377.409 304.974 396.171 302.92 404.097C298.964 419.151 298.588 423.973 301.223 427.052C302.623 428.689 303.187 428.373 306.254 424.749Z" fill="#FF3F7C"/>
<path d="M274.882 433.333C277.805 432.223 281.27 429.812 283.214 427.558C290.038 418.766 288.861 413.702 288.275 412.19C287.771 410.887 283.514 406.58 278.982 415.111C274.451 423.643 264.72 426.137 263.015 428.178C261.309 430.218 261.567 433.143 264.233 434.275C266.898 435.407 271.227 434.721 274.882 433.333Z" fill="#F9FCFF" stroke="#1E38D7" stroke-width="2"/>
<path d="M32.3077 286.413C31.1559 289.677 30.7157 294.327 31.2306 297.579C33.7803 309.629 38.899 312.253 40.595 312.84C42.0559 313.345 48.7373 312.826 44.7691 302.901C40.801 292.976 45.649 282.972 45.1445 280.074C44.64 277.175 41.9843 275.302 39.1233 276.745C36.2622 278.187 33.7476 282.335 32.3077 286.413Z" fill="#F9FCFF" stroke="#1E38D7" stroke-width="2"/>
<path d="M304.879 256.882C312.482 261.791 318.771 270.619 320.965 274.419C323.803 279.953 328.591 294.73 325.041 309.56C320.603 328.097 303.474 339.418 287.659 343.721C271.844 348.024 251.492 340.342 244.152 335.579C236.812 330.816 222.54 316.524 222.067 300.941C221.593 285.358 225.361 272.99 235.765 261.379C246.169 249.769 260.699 247.162 272.832 247.011C284.965 246.861 295.375 250.746 304.879 256.882Z" fill="#2F68F9" stroke="#0425F5" stroke-width="2"/>
<path d="M149.599 180.83C157.081 185.636 163.274 194.271 165.436 197.987C168.233 203.399 172.957 217.846 169.484 232.336C165.142 250.448 148.313 261.492 132.768 265.679C117.222 269.867 97.2032 262.336 89.9808 257.672C82.7583 253.009 68.7087 239.025 68.2255 223.795C67.7424 208.564 71.4323 196.481 81.6488 185.146C91.8654 173.81 106.149 171.279 118.078 171.146C130.008 171.013 140.247 174.822 149.599 180.83Z" fill="#2F68F9" stroke="#0425F5" stroke-width="2"/>
<path d="M145.726 229.936L143.834 233.842C142.747 236.085 142.204 237.207 141.316 237.809C140.737 238.201 140.065 238.435 139.367 238.487C138.298 238.566 137.175 238.024 134.931 236.94L134.113 236.546C131.991 235.521 130.929 235.008 130.051 234.307C128.807 233.314 127.818 232.039 127.166 230.587C126.706 229.561 126.474 228.406 126.01 226.094L125.977 225.931C125.711 224.604 125.578 223.94 125.638 223.341C125.744 222.296 126.257 221.334 127.066 220.664C127.53 220.279 128.155 220.02 129.406 219.502C131.141 218.783 132.008 218.423 132.892 218.232C134.428 217.901 136.02 217.936 137.54 218.334C138.414 218.564 139.265 218.961 140.967 219.755L142.336 220.394C145.01 221.643 146.347 222.267 146.977 223.373C147.211 223.783 147.37 224.231 147.447 224.696C147.656 225.952 147.013 227.28 145.726 229.936Z" fill="#0425F5"/>
<path d="M132.046 193.368L135.766 195.603C137.902 196.886 138.971 197.528 139.49 198.466C139.83 199.078 140.002 199.768 139.991 200.468C139.974 201.54 139.334 202.609 138.053 204.748L137.586 205.527C136.375 207.549 135.77 208.56 134.992 209.372C133.892 210.522 132.533 211.392 131.028 211.911C129.966 212.278 128.794 212.405 126.45 212.659L126.285 212.677C124.939 212.824 124.266 212.897 123.675 212.783C122.643 212.583 121.731 211.986 121.136 211.12C120.795 210.624 120.593 209.978 120.189 208.686C119.628 206.893 119.348 205.997 119.237 205.1C119.045 203.541 119.222 201.958 119.756 200.48C120.063 199.63 120.535 198.818 121.479 197.194L122.238 195.888C123.721 193.337 124.463 192.061 125.621 191.533C126.05 191.337 126.511 191.218 126.981 191.183C128.25 191.088 129.515 191.848 132.046 193.368Z" fill="#0425F5"/>
<path d="M95.4016 207.401L97.6153 203.668C98.8868 201.524 99.5226 200.452 100.458 199.927C101.068 199.585 101.757 199.408 102.456 199.415C103.529 199.426 104.602 200.06 106.747 201.329L107.529 201.791C109.558 202.99 110.572 203.59 111.389 204.363C112.545 205.457 113.423 206.811 113.951 208.312C114.323 209.373 114.457 210.544 114.725 212.886L114.744 213.051C114.898 214.396 114.975 215.069 114.864 215.661C114.671 216.693 114.079 217.609 113.216 218.209C112.722 218.553 112.077 218.758 110.787 219.17C108.998 219.741 108.103 220.026 107.207 220.142C105.649 220.343 104.065 220.175 102.584 219.65C101.732 219.348 100.918 218.881 99.2885 217.946L97.9785 217.194C95.4184 215.725 94.1383 214.991 93.6034 213.836C93.4052 213.408 93.2842 212.948 93.2461 212.478C93.1433 211.209 93.896 209.94 95.4016 207.401Z" fill="#0425F5"/>
<path d="M108.535 244.463L104.718 242.398C102.525 241.212 101.429 240.619 100.867 239.706C100.501 239.11 100.297 238.428 100.277 237.729C100.245 236.657 100.837 235.56 102.02 233.365L102.45 232.567C103.569 230.492 104.128 229.454 104.868 228.608C105.915 227.41 107.234 226.478 108.714 225.892C109.758 225.478 110.923 225.298 113.253 224.938L113.417 224.912C114.755 224.706 115.424 224.602 116.02 224.689C117.06 224.842 117.998 225.397 118.631 226.235C118.994 226.716 119.225 227.352 119.687 228.625C120.328 230.39 120.649 231.273 120.8 232.164C121.063 233.713 120.957 235.302 120.491 236.803C120.223 237.666 119.788 238.498 118.918 240.163L118.219 241.501C116.852 244.117 116.169 245.425 115.036 246.006C114.616 246.221 114.161 246.36 113.693 246.416C112.429 246.569 111.131 245.867 108.535 244.463Z" fill="#0425F5"/>
<path d="M92.5227 238.797L100.228 224.185C100.617 223.447 100.33 222.534 99.5882 222.152L84.5823 214.418C82.153 213.166 81.179 210.196 82.3953 207.748L89.8962 192.655C91.1475 190.137 94.2283 189.146 96.7132 190.462L114.683 199.975C115.405 200.357 116.3 200.091 116.696 199.377L124.219 185.821C125.532 183.455 128.488 182.563 130.89 183.807L145.219 191.226C147.682 192.501 148.636 195.537 147.347 197.992L140.06 211.862C139.671 212.604 139.964 213.521 140.712 213.899L158.023 222.634C160.451 223.859 161.454 226.801 160.281 229.254L153.327 243.804C152.126 246.316 149.106 247.363 146.608 246.134L125.982 235.985C125.241 235.62 124.345 235.923 123.977 236.663L116.689 251.326C115.442 253.833 112.379 254.828 109.897 253.532L94.6313 245.562C92.1764 244.28 91.231 241.247 92.5227 238.797Z" stroke="white" stroke-width="2.5"/>
<path d="M223.409 252.702L183.9 231.712" stroke="#FE337D" stroke-width="6" stroke-linecap="round"/>
<path d="M213.626 259.149L184.204 243.518" stroke="#E9F9FF" stroke-width="6" stroke-linecap="round"/>
<path d="M272.736 255.68L264.943 273.343C264.606 274.106 263.712 274.448 262.952 274.105L245.004 265.983C242.514 264.857 239.581 265.938 238.418 268.411L229.862 286.606C228.666 289.151 229.802 292.181 232.376 293.312L253.972 302.798C254.72 303.126 255.067 303.993 254.754 304.747L247.787 321.499C246.748 323.996 247.884 326.868 250.351 327.978L267.933 335.893C270.461 337.031 273.433 335.894 274.557 333.359L281.991 316.579C282.331 315.813 283.232 315.473 283.993 315.825L304.42 325.278C306.888 326.421 309.816 325.381 311.011 322.938L319.481 305.62C320.704 303.119 319.65 300.101 317.135 298.907L293.147 287.511C292.401 287.157 292.082 286.266 292.433 285.518L300.581 268.188C301.772 265.654 300.65 262.635 298.093 261.494L279.348 253.133C276.819 252.004 273.854 253.147 272.736 255.68Z" stroke="white" stroke-width="2.5"/>
<path d="M242.347 292.543C247.34 296.885 254.908 296.357 259.25 291.364C263.593 286.37 263.065 278.802 258.072 274.46C253.078 270.117 245.51 270.645 241.168 275.639C236.825 280.632 237.353 288.2 242.347 292.543Z" fill="#0425F5"/>
<path d="M258.17 326.059C263.163 330.402 270.731 329.874 275.073 324.881C279.416 319.887 278.888 312.319 273.895 307.977C268.901 303.634 261.333 304.162 256.991 309.156C252.648 314.149 253.176 321.717 258.17 326.059Z" fill="#0425F5"/>
<path d="M292.524 316.297C297.517 320.64 305.085 320.112 309.427 315.119C313.77 310.125 313.242 302.557 308.249 298.215C303.255 293.872 295.687 294.4 291.345 299.394C287.002 304.387 287.53 311.955 292.524 316.297Z" fill="#0425F5"/>
<path d="M275.67 281.28C280.664 285.622 288.232 285.094 292.574 280.101C296.917 275.107 296.389 267.539 291.396 263.197C286.402 258.854 278.834 259.382 274.492 264.376C270.149 269.369 270.677 276.937 275.67 281.28Z" fill="#0425F5"/>
<path d="M282.366 278.775L290.259 274.398C292.76 273.012 292.909 269.471 290.534 267.878C289.943 267.482 289.202 267.383 288.528 267.609L288.066 267.763C287.734 267.875 287.414 268.021 287.113 268.199L285.201 269.327L284.125 266.593L284.02 266.392C283.194 264.819 281.254 264.209 279.677 265.025C278.295 265.741 277.62 267.342 278.074 268.832L280.924 278.191C281.109 278.8 281.809 279.083 282.366 278.775Z" stroke="white" stroke-width="2"/>
<path d="M253.166 275.963L245.168 281.806C245.101 281.855 245.071 281.941 245.093 282.021L247.749 291.621C247.786 291.755 247.946 291.811 248.059 291.73L256.333 285.743C256.403 285.693 256.432 285.604 256.407 285.522L253.475 276.065C253.435 275.934 253.277 275.882 253.166 275.963Z" stroke="#D5489F" stroke-width="2"/>
<path d="M299.085 302.946L303.833 300.318C303.944 300.256 304.084 300.314 304.121 300.436L305.663 305.567C305.674 305.603 305.695 305.635 305.723 305.66L309.88 309.275C309.984 309.366 309.968 309.532 309.847 309.6L304.98 312.352C304.946 312.371 304.919 312.4 304.901 312.434L302.64 316.791C302.58 316.906 302.429 316.935 302.331 316.85L298.727 313.716C298.695 313.688 298.655 313.671 298.614 313.668L293.939 313.24C293.813 313.229 293.73 313.106 293.765 312.985L295.191 308.087C295.202 308.05 295.202 308.01 295.19 307.973L293.578 302.722C293.536 302.585 293.647 302.45 293.789 302.464L298.968 302.97C299.009 302.974 299.049 302.965 299.085 302.946Z" stroke="#D5489F" stroke-width="2"/>
<path d="M269.88 310.79L268.556 310.304C266.813 309.665 264.86 310.043 263.482 311.287L261.85 312.76C260.479 313.998 259.902 315.892 260.351 317.685L260.709 319.118C261.139 320.837 262.447 322.2 264.147 322.7L266.012 323.25C267.639 323.729 269.397 323.351 270.683 322.246L271.717 321.358C273.015 320.243 273.653 318.541 273.407 316.847L273.105 314.766C272.842 312.949 271.603 311.423 269.88 310.79Z" stroke="white" stroke-width="2"/>
<path d="M192.33 271.813L188.285 278.988C187.958 279.568 188.278 280.299 188.926 280.453L205.744 284.433C206.443 284.598 206.908 283.73 206.383 283.24L193.884 271.573C193.41 271.131 192.648 271.249 192.33 271.813Z" fill="#0425F5"/>
<path d="M169.47 259.647L181.241 266.144C181.729 266.414 181.903 267.03 181.627 267.515L178.203 273.527C177.928 274.011 177.31 274.177 176.829 273.896L165.038 266.996C164.554 266.712 164.397 266.087 164.691 265.609L168.134 259.999C168.414 259.544 169.002 259.388 169.47 259.647Z" fill="#0425F5"/>
<path d="M197.846 291.425L186.295 284.779" stroke="white" stroke-width="2.8" stroke-linecap="round"/>
<path d="M173.53 278.335L161.979 271.689" stroke="white" stroke-width="2.8" stroke-linecap="round"/>
</g>
<defs>
<filter id="filter0_i_522_1747" x="193.256" y="102.22" width="317.376" height="133.421" filterUnits="userSpaceOnUse" color-interpolation-filters="sRGB">
<feFlood flood-opacity="0" result="BackgroundImageFix"/>
<feBlend mode="normal" in="SourceGraphic" in2="BackgroundImageFix" result="shape"/>
<feColorMatrix in="SourceAlpha" type="matrix" values="0 0 0 0 0 0 0 0 0 0 0 0 0 0 0 0 0 0 127 0" result="hardAlpha"/>
<feOffset dy="12"/>
<feGaussianBlur stdDeviation="3"/>
<feComposite in2="hardAlpha" operator="arithmetic" k2="-1" k3="1"/>
<feColorMatrix type="matrix" values="0 0 0 0 0.396078 0 0 0 0 0.580392 0 0 0 0 0.745098 0 0 0 1 0"/>
<feBlend mode="normal" in2="shape" result="effect1_innerShadow_522_1747"/>
</filter>
<clipPath id="clip0_522_1747">
<rect width="478" height="455" fill="white" transform="translate(0.650024 0.60614)"/>
</clipPath>
</defs>
</svg>
